<svg id="Calque_1" data-name="Calque 1" xmlns="http://www.w3.org/2000/svg" viewBox="0 0 255.63 255.63"><defs><style>.cls-1{fill:#5abb44;}.cls-2,.cls-3{fill:none;stroke:#fff;stroke-miterlimit:133.33;stroke-width:16.64px;}.cls-3{stroke-linecap:round;}.cls-4{fill:#fff;}</style></defs><rect class="cls-1" width="255.63" height="255.63" rx="28"/><path class="cls-2" d="M83.64,194.54A16.64,16.64,0,1,1,67,211.18,16.63,16.63,0,0,1,83.64,194.54Z" transform="translate(0 -0.37)"/><path class="cls-2" d="M183.45,194.54a16.64,16.64,0,1,1-16.63,16.64A16.64,16.64,0,0,1,183.45,194.54Z" transform="translate(0 -0.37)"/><path class="cls-3" d="M22.64,28.19l2.9,1C40,34.28,47.19,36.82,51.32,42.86S55.45,56.92,55.45,73v30.19c0,32.62.7,43.39,10.31,53.52s25.07,10.14,56,10.14h11.79m47,0c17.31,0,26,0,32.09-5s7.87-13.46,11.36-30.42l5.54-26.89c3.85-19.29,5.78-28.93.85-35.33s-21.74-6.4-40.43-6.4H122.72m-67.27,0H78.09" transform="translate(0 -0.37)"/><path class="cls-4" d="M130.14,114.63,125.24,142l-14.55-2.61,10.44-58.21,14.77,2.65,7,22.29,14.35-18.45,14.77,2.64-10.44,58.21-14.55-2.61,4.9-27.32-14.65,18.85Z" transform="translate(0 -0.37)"/></svg>